#!OML:ASF H:\Dans Jumps\Project 1\Capture day 1\Session 1\subject.ASF
:FULLY-SPECIFIED
:DEGREES
228
root 0.119411 17.5107 -14.3006 7.68453 0.0464057 -1.89106
lowerback -0.806499 -0.449915 0.881309
upperback 3.33721 -0.69142 1.93349
thorax 3.89983 -0.35048 1.46909
lowerneck -12.9733 0.239666 -2.47583
upperneck 29.2425 0.60656 1.22575
head 11.6729 0.151555 0.965251
rclavicle 4.17448e-015 9.54166e-015
rhumerus -24.8223 -19.756 -77.3031
rradius 23.7509
rwrist 32.4052
rhand -20.2044 -26.6783
rfingers 7.12502
rthumb 6.14244 -56.5692
lclavicle 4.17448e-015 9.54166e-015
lhumerus -20.5559 6.47808 85.0262
lradius 16.8191
lwrist 2.10081
lhand -24.9768 0.11887
lfingers 7.12502
lthumb 1.53398 30.0931
rfemur -16.6635 -0.984944 19.3155
rtibia 22.9924
rfoot -13.372 -2.26153
rtoes 6.78873
lfemur -16.0899 5.46463 -16.5119
ltibia 22.5991
lfoot -11.1385 6.25981
ltoes -7.05235
229
root 0.121631 17.5023 -14.3139 7.70926 0.005166 -1.91446
lowerback -0.630108 -0.44652 0.894602
upperback 3.38503 -0.684932 1.94651
thorax 3.84945 -0.34718 1.4765
lowerneck -13.0089 0.24921 -2.46711
upperneck 29.0268 0.627524 1.19622
head 11.5956 0.160043 0.953746
rclavicle 7.45443e-015 -1.03368e-014
rhumerus -24.7976 -19.532 -77.351
rradius 23.8543
rwrist 32.2087
rhand -20.2566 -26.6534
rfingers 7.12502
rthumb 6.09213 -56.5458
lclavicle 7.45443e-015 -1.03368e-014
lhumerus -20.6475 6.21146 85.0858
lradius 16.9354
lwrist 2.45227
lhand -25.1637 -0.380534
lfingers 7.12502
lthumb 1.35344 29.5949
rfemur -16.9161 -0.94254 19.3329
rtibia 23.3153
rfoot -13.4567 -2.28529
rtoes 6.68478
lfemur -16.3687 5.50968 -16.5056
ltibia 22.9854
lfoot -11.2341 6.2939
ltoes -7.12456
230
root 0.124009 17.4935 -14.328 7.73898 -0.0412684 -1.93525
lowerback -0.449015 -0.442924 0.903415
upperback 3.43939 -0.678092 1.9608
thorax 3.80327 -0.343881 1.48777
lowerneck -13.0479 0.257683 -2.45272
upperneck 28.7963 0.649625 1.15261
head 11.5138 0.168057 0.936154
rclavicle -2.78299e-015 5.56597e-015
rhumerus -24.7667 -19.316 -77.3915
rradius 23.9539
rwrist 32.0221
rhand -20.2956 -26.6251
rfingers 7.12502
rthumb 6.05444 -56.5186
lclavicle -2.78299e-015 5.56597e-015
lhumerus -20.7414 5.95025 85.1447
lradius 17.0082
lwrist 2.74099
lhand -25.4459 -1.20349
lfingers 7.12502
lthumb 1.08088 28.7735
rfemur -17.189 -0.901411 19.347
rtibia 23.6563
rfoot -13.5446 -2.30729
rtoes 6.56403
lfemur -16.6614 5.56233 -16.5045
ltibia 23.3841
lfoot -11.3365 6.32943
ltoes -7.1986
231
root 0.126618 17.4841 -14.3429 7.77464 -0.0903879 -1.95081
lowerback -0.26668 -0.43872 0.908456
upperback 3.49946 -0.670361 1.97353
thorax 3.76235 -0.34024 1.49956
lowerneck -13.0883 0.264732 -2.43362
upperneck 28.554 0.671033 1.09983
head 11.4282 0.175263 0.914278
rclavicle 5.86415e-015 -1.86858e-014
rhumerus -24.7344 -19.118 -77.4229
rradius 24.0479
rwrist 31.8508
rhand -20.3394 -26.5899
rfingers 7.12502
rthumb 6.01217 -56.4846
lclavicle 5.86415e-015 -1.86858e-014
lhumerus -20.837 5.70423 85.198
lradius 17.0406
lwrist 2.95318
lhand -25.7853 -2.2767
lfingers 7.12502
lthumb 0.753105 27.7017
rfemur -17.4818 -0.866815 19.3552
rtibia 24.0153
rfoot -13.6368 -2.32348
rtoes 6.43437
lfemur -16.9655 5.62705 -16.5125
ltibia 23.7885
lfoot -11.446 6.36123
ltoes -7.27515
232
root 0.129586 17.4745 -14.3583 7.81731 -0.144199 -1.95739
lowerback -0.0860534 -0.43261 0.908183
upperback 3.56439 -0.660007 1.98356
thorax 3.72745 -0.335419 1.5116
lowerneck -13.1258 0.271082 -2.41318
upperneck 28.3002 0.69249 1.04129
head 11.3381 0.182064 0.890065
rclavicle -1.31198e-014 1.74931e-014
rhumerus -24.6992 -18.9567 -77.4401
rradius 24.1277
rwrist 31.7116
rhand -20.3695 -26.5722
rfingers 7.12502
rthumb 5.98313 -56.4677
lclavicle -1.31198e-014 1.74931e-014
lhumerus -20.9303 5.44076 85.2568
lradius 17.0576
lwrist 3.14886
lhand -26.1246 -3.38254
lfingers 7.12502
lthumb 0.425432 26.5968
rfemur -17.7946 -0.843016 19.353
rtibia 24.3916
rfoot -13.733 -2.32956
rtoes 6.29288
lfemur -17.2773 5.69752 -16.5341
ltibia 24.193
lfoot -11.5598 6.3959
ltoes -7.34953
233
root 0.132848 17.4646 -14.3742 7.86677 -0.20079 -1.95523
lowerback 0.0960999 -0.424429 0.904477
upperback 3.63034 -0.646662 1.98904
thorax 3.69267 -0.329139 1.52095
lowerneck -13.1493 0.279246 -2.39297
upperneck 28.0358 0.715822 0.983239
head 11.2415 0.189887 0.866292
rclavicle -6.16232e-015 -6.75868e-015
rhumerus -24.6667 -18.8449 -77.4406
rradius 24.1871
rwrist 31.6127
rhand -20.3978 -26.5494
rfingers 7.12502
rthumb 5.95575 -56.4457
lclavicle -6.16232e-015 -6.75868e-015
lhumerus -21.0266 5.1317 85.3259
lradius 17.0912
lwrist 3.39213
lhand -26.4386 -4.35884
lfingers 7.12502
lthumb 0.122096 25.6209
rfemur -18.1275 -0.830878 19.3415
rtibia 24.7856
rfoot -13.8328 -2.3279
rtoes 6.13739
lfemur -17.5962 5.77176 -16.5681
ltibia 24.5958
lfoot -11.6768 6.43192
ltoes -7.41459
234
root 0.136363 17.4546 -14.3906 7.92923 -0.263248 -1.94379
lowerback 0.270008 -0.412836 0.896143
upperback 3.70051 -0.628811 1.98926
thorax 3.66685 -0.320671 1.52751
lowerneck -13.1623 0.291783 -2.38124
upperneck 27.7552 0.742434 0.94091
head 11.137 0.200431 0.850084
rclavicle 4.87022e-015 -1.66979e-014
rhumerus -24.6235 -18.7941 -77.4303
rradius 24.2209
rwrist 31.5624
rhand -20.4256 -26.5494
rfingers 7.12502
rthumb 5.92893 -56.4464
lclavicle 4.87022e-015 -1.66979e-014
lhumerus -21.1137 4.76919 85.4066
lradius 17.1605
lwrist 3.70282
lhand -26.6542 -4.97364
lfingers 7.12502
lthumb -0.0860633 25.0061
rfemur -18.4885 -0.82887 19.3206
rtibia 25.1985
rfoot -13.9349 -2.31823
rtoes 5.95815
lfemur -17.9284 5.84374 -16.6152
ltibia 24.997
lfoot -11.7927 6.47633
ltoes -7.47587
235
root 0.13995 17.4441 -14.4076 8.00041 -0.335639 -1.92473
lowerback 0.445714 -0.397154 0.881592
upperback 3.77266 -0.605313 1.98533
thorax 3.64198 -0.309519 1.53337
lowerneck -13.1749 0.303726 -2.36504
upperneck 27.4692 0.768168 0.89389
head 11.031 0.210577 0.831339
rclavicle -2.48481e-015 1.31198e-014
rhumerus -24.5814 -18.779 -77.41
rradius 24.2431
rwrist 31.532
rhand -20.4459 -26.5571
rfingers 7.12502
rthumb 5.90928 -56.4547
lclavicle -2.48481e-015 1.31198e-014
lhumerus -21.2062 4.34761 85.5006
lradius 17.275
lwrist 4.09212
lhand -26.7854 -5.24042
lfingers 7.12502
lthumb -0.212853 24.7392
rfemur -18.8744 -0.829754 19.2919
rtibia 25.6317
rfoot -14.0399 -2.30118
rtoes 5.7746
lfemur -18.2723 5.92714 -16.6739
ltibia 25.4005
lfoot -11.9088 6.52142
ltoes -7.55278
236
root 0.143576 17.4332 -14.4254 8.08145 -0.415065 -1.89526
lowerback 0.626689 -0.37996 0.857102
upperback 3.84491 -0.579496 1.97801
thorax 3.61425 -0.297471 1.54133
lowerneck -13.1843 0.316292 -2.34846
upperneck 27.1768 0.795642 0.842278
head 10.9226 0.221102 0.811137
rclavicle 5.1684e-015 -7.15625e-015
rhumerus -24.5456 -18.7845 -77.3811
rradius 24.2603
rwrist 31.512
rhand -20.466 -26.5552
rfingers 7.12502
rthumb 5.88988 -56.4533
lclavicle 5.1684e-015 -7.15625e-015
lhumerus -21.3103 3.87798 85.6067
lradius 17.4413
lwrist 4.55614
lhand -26.8183 -5.1358
lfingers 7.12502
lthumb -0.244641 24.8438
rfemur -19.2881 -0.835453 19.2529
rtibia 26.0869
rfoot -14.1484 -2.27846
rtoes 5.58793
lfemur -18.6325 6.01942 -16.7466
ltibia 25.8098
lfoot -12.0246 6.56342
ltoes -7.64122
237
root 0.147119 17.4218 -14.4442 8.1773 -0.500464 -1.85742
lowerback 0.804764 -0.36091 0.823307
upperback 3.92064 -0.551235 1.96785
thorax 3.59181 -0.284466 1.55152
lowerneck -13.2125 0.326346 -2.33578
upperneck 26.8811 0.819383 0.795621
head 10.8173 0.230212 0.793093
rclavicle 1.49089e-015 -1.59028e-015
rhumerus -24.5016 -18.8143 -77.3489
rradius 24.267
rwrist 31.5034
rhand -20.5067 -26.5512
rfingers 7.12502
rthumb 5.85066 -56.4504
lclavicle 1.49089e-015 -1.59028e-015
lhumerus -21.4165 3.3958 85.7125
lradius 17.6119
lwrist 5.00319
lhand -26.8464 -5.04911
lfingers 7.12502
lthumb -0.271767 24.9305
rfemur -19.735 -0.844444 19.206
rtibia 26.5644
rfoot -14.2601 -2.25002
rtoes 5.40389
lfemur -19.0186 6.12122 -16.8314
ltibia 26.2317
lfoot -12.1405 6.60269
ltoes -7.74293
238
root 0.150579 17.4098 -14.4637 8.28711 -0.58921 -1.80809
lowerback 0.983391 -0.343018 0.775415
upperback 3.99783 -0.524448 1.95576
thorax 3.57071 -0.27263 1.56751
lowerneck -13.2326 0.335453 -2.32683
upperneck 26.564 0.843261 0.744871
head 10.703 0.23877 0.774137
rclavicle 5.1684e-015 4.37326e-015
rhumerus -24.4559 -18.8561 -77.3117
rradius 24.2613
rwrist 31.4952
rhand -20.5574 -26.5525
rfingers 7.12502
rthumb 5.80168 -56.453
lclavicle 5.1684e-015 4.37326e-015
lhumerus -21.529 2.918 85.8159
lradius 17.7835
lwrist 5.42274
lhand -26.8853 -5.00364
lfingers 7.12502
lthumb -0.30934 24.9759
rfemur -20.2126 -0.859778 19.1479
rtibia 27.0618
rfoot -14.3752 -2.21635
rtoes 5.21772
lfemur -19.4334 6.23059 -16.9318
ltibia 26.6714
lfoot -12.2569 6.63744
ltoes -7.85695
239
root 0.153918 17.3972 -14.4841 8.40808 -0.675207 -1.7576
lowerback 1.16553 -0.326598 0.725049
upperback 4.07709 -0.49975 1.94375
thorax 3.54987 -0.261938 1.58485
lowerneck -13.2547 0.342774 -2.31826
upperneck 26.235 0.86584 0.688929
head 10.5856 0.246263 0.753272
rclavicle -1.78906e-015 0
rhumerus -24.4106 -18.9103 -77.2707
rradius 24.2459
rwrist 31.4843
rhand -20.6305 -26.5514
rfingers 7.12502
rthumb 5.73109 -56.4539
lclavicle -1.78906e-015 0
lhumerus -21.6446 2.47206 85.9087
lradius 17.9521
lwrist 5.78226
lhand -26.9035 -4.94606
lfingers 7.12502
lthumb -0.326917 25.0334
rfemur -20.715 -0.882981 19.0906
rtibia 27.5743
rfoot -14.493 -2.17934
rtoes 5.02419
lfemur -19.8792 6.34823 -17.0357
ltibia 27.1351
lfoot -12.3761 6.66225
ltoes -7.97259
240
root 0.157184 17.384 -14.5055 8.5428 -0.754398 -1.71384
lowerback 1.34988 -0.312104 0.682716
upperback 4.15832 -0.477886 1.93247
thorax 3.52985 -0.25243 1.59832
lowerneck -13.2769 0.348714 -2.30805
upperneck 25.8869 0.886025 0.631553
head 10.4618 0.252917 0.731318
rclavicle 8.54774e-015 -5.56597e-015
rhumerus -24.3659 -18.9812 -77.2276
rradius 24.2237
rwrist 31.476
rhand -20.7128 -26.5623
rfingers 7.12502
rthumb 5.65168 -56.4669
lclavicle 8.54774e-015 -5.56597e-015
lhumerus -21.7577 2.04837 85.9904
lradius 18.111
lwrist 6.09536
lhand -26.908 -4.91439
lfingers 7.12502
lthumb -0.331269 25.0651
rfemur -21.2407 -0.919695 19.043
rtibia 28.0961
rfoot -14.6131 -2.13251
rtoes 4.84599
lfemur -20.3625 6.47169 -17.1348
ltibia 27.6278
lfoot -12.4994 6.67688
ltoes -8.08234
241
root 0.160313 17.3699 -14.5281 8.68502 -0.822166 -1.68368
lowerback 1.55418 -0.29999 0.654828
upperback 4.23149 -0.458989 1.9246
thorax 3.49023 -0.24396 1.60715
lowerneck -13.305 0.353037 -2.29018
upperneck 25.547 0.904063 0.566243
head 10.3432 0.258396 0.705213
rclavicle 7.45443e-015 0
rhumerus -24.3529 -19.0378 -77.177
rradius 24.2159
rwrist 31.4512
rhand -20.7806 -26.5754
rfingers 7.12502
rthumb 5.58617 -56.4817
lclavicle 7.45443e-015 0
lhumerus -21.9022 1.63991 86.0649
lradius 18.2737
lwrist 6.39737
lhand -26.9413 -4.9795
lfingers 7.12502
lthumb -0.363364 24.9999
rfemur -21.7804 -0.970408 19.0132
rtibia 28.6211
rfoot -14.7353 -2.07911
rtoes 4.68044
lfemur -20.882 6.60524 -17.2213
ltibia 28.1554
lfoot -12.6286 6.67702
ltoes -8.19879
